<?xml version="1.0" encoding="utf-8"?>
<!-- Generator: Adobe Illustrator 26.4.0, SVG Export Plug-In . SVG Version: 6.00 Build 0)  -->
<svg version="1.1" id="Livello_1" xmlns="http://www.w3.org/2000/svg" xmlns:xlink="http://www.w3.org/1999/xlink" x="0px" y="0px"
	 viewBox="0 0 24 18" style="enable-background:new 0 0 24 18;" xml:space="preserve">
<path fill="#06d9a3" d="M13,11.7C13,6.6,16.9,1.2,23,0l1,2.1c-2.2,0.8-4.2,3.7-4.4,5.7C22.1,8.3,24,10.4,24,13c0,3.2-2.6,5-5.2,5
	C15.8,18,13,15.7,13,11.7z M0,11.7C0,6.6,3.9,1.2,10,0l1,2.1C8.8,3,6.8,5.9,6.6,7.9C9.1,8.3,11,10.4,11,13c0,3.2-2.6,5-5.2,5
	C2.8,18,0,15.7,0,11.7z"/>
</svg>
